<svg xmlns="http://www.w3.org/2000/svg" width="82.61016968330136" height="69.91525452495193" style="background: rgba(0, 0, 0, 0);" preserveAspectRatio="xMidYMid"><rect id="backgroundrect" width="100%" height="100%" x="0" y="0" fill="none" stroke="none" class="" style=""/><defs><filter id="editing-metal-beveled"><feGaussianBlur stdDeviation="4" in="SourceAlpha" result="blur"/><feSpecularLighting surfaceScale="5" specularConstant="0.8" specularExponent="7.5" lighting-color="#ffffff" in="blur" result="specular"><fePointLight x="-250" y="-50" z="300"/></feSpecularLighting><feComposite operator="in" in="specular" in2="SourceAlpha" result="comp"/><feComposite in="SourceGraphic" in2="comp" operator="arithmetic" k1="0" k2="1" k3="1" k4="0"/></filter></defs><style>text {
  font-size: 64px;
  font-family: Arial Black;
  dominant-baseline: central;
  text-anchor: middle;
}</style><g class="currentLayer" style=""><title>Layer 1</title><g filter="url(#editing-metal-beveled)" id="svg_1" class=""><g id="svg_2"><path d="M37.37413280963898,35.58871750354767 L37.37413280963898,35.58871750354767 L37.37413280963898,35.58871750354767 Q37.31413280963898,35.77871750354767 37.16413280963897,36.08871750354767 L37.16413280963897,36.08871750354767 L37.16413280963897,36.08871750354767 Q37.004132809638975,36.39871750354767 36.82413280963897,36.73871750354766 L36.82413280963897,36.73871750354766 L36.82413280963897,36.73871750354766 Q36.63413280963897,37.078717503547665 36.44413280963897,37.298717503547664 L36.44413280963897,37.298717503547664 L36.44413280963897,37.298717503547664 Q36.264132809638966,37.51871750354766 36.20413280963896,37.44871750354767 L36.20413280963896,37.44871750354767 L36.20413280963896,37.44871750354767 Q36.20413280963896,37.44871750354767 36.264132809638966,37.13871750354767 L36.264132809638966,37.13871750354767 L36.264132809638966,37.13871750354767 Q36.32413280963897,36.828717503547665 36.41413280963897,36.45871750354766 L36.41413280963897,36.45871750354766 L36.41413280963897,36.45871750354766 Q36.514132809638966,36.08871750354767 36.60413280963897,35.74871750354767 L36.60413280963897,35.74871750354767 L36.60413280963897,35.74871750354767 Q36.69413280963897,35.40871750354766 36.69413280963897,35.27871750354767 L36.69413280963897,35.27871750354767 L36.69413280963897,35.27871750354767 Q37.62413280963898,30.318717503547674 36.69413280963897,26.72871750354767 L36.69413280963897,26.72871750354767 L36.69413280963897,26.72871750354767 Q35.764132809638966,23.128717503547676 33.56413280963898,20.83871750354767 L33.56413280963898,20.83871750354767 L33.56413280963898,20.83871750354767 Q31.36413280963899,18.538717503547673 28.17413280963899,17.428717503547666 L28.17413280963899,17.428717503547666 L28.17413280963899,17.428717503547666 Q24.974132809638974,16.30871750354767 21.444132809638973,16.248717503547667 L21.444132809638973,16.248717503547667 L21.444132809638973,16.248717503547667 Q18.90413280963898,16.248717503547667 16.454132809638963,16.648717503547665 L16.454132809638963,16.648717503547665 L16.454132809638963,16.648717503547665 Q14.004132809638975,17.05871750354767 11.984132809638965,17.678717503547666 L11.984132809638965,17.678717503547666 L11.984132809638965,17.678717503547666 Q9.974132809638974,18.298717503547664 8.584132809638987,19.038717503547673 L8.584132809638987,19.038717503547673 L8.584132809638987,19.038717503547673 Q7.184132809638982,19.778717503547668 6.814132809638977,20.468717503547666 L6.814132809638977,20.468717503547666 L6.814132809638977,20.468717503547666 Q6.374132809638979,21.20871750354766 6.564132809638977,20.278717503547668 L6.564132809638977,20.278717503547668 L6.564132809638977,20.278717503547668 Q7.064132809638977,18.66871750354767 9.194132809638973,17.29871750354767 L9.194132809638973,17.29871750354767 L9.194132809638973,17.29871750354767 Q11.334132809638987,15.938717503547672 14.194132809638973,15.068717503547667 L14.194132809638973,15.068717503547667 L14.194132809638973,15.068717503547667 Q17.044132809638967,14.19871750354767 20.17413280963899,13.928717503547666 L20.17413280963899,13.928717503547666 L20.17413280963899,13.928717503547666 Q23.304132809638986,13.648717503547665 25.844132809638978,14.26871750354767 L25.844132809638978,14.26871750354767 L25.844132809638978,14.26871750354767 Q27.524132809638985,14.638717503547667 29.194132809638973,15.318717503547667 L29.194132809638973,15.318717503547667 L29.194132809638973,15.318717503547667 Q30.86413280963899,15.998717503547667 32.38413280963897,16.958717503547668 L32.38413280963897,16.958717503547668 L32.38413280963897,16.958717503547668 Q33.90413280963898,17.91871750354767 35.17413280963899,19.258717503547672 L35.17413280963899,19.258717503547672 L35.17413280963899,19.258717503547672 Q36.44413280963897,20.58871750354767 37.31413280963898,22.328717503547665 L37.31413280963898,22.328717503547665 L37.31413280963898,22.328717503547665 Q38.994132809638984,25.66871750354767 38.96413280963898,29.23871750354766 L38.96413280963898,29.23871750354766 L38.96413280963898,29.23871750354766 Q38.924132809639,32.798717503547664 37.37413280963898,35.58871750354767 zM41.40413280963898,35.15871750354766 L41.40413280963898,35.15871750354766 L41.40413280963898,35.15871750354766 Q40.23413280963899,38.628717503547676 38.274132809638985,41.41871750354767 L38.274132809638985,41.41871750354767 L38.274132809638985,41.41871750354767 Q36.32413280963897,44.20871750354766 34.09413280963898,46.40871750354766 L34.09413280963898,46.40871750354766 L34.09413280963898,46.40871750354766 Q31.86413280963899,48.608717503547666 29.504132809638975,50.22871750354767 L29.504132809638975,50.22871750354767 L29.504132809638975,50.22871750354767 Q27.14413280963896,51.83871750354767 25.10413280963897,52.94871750354767 L25.10413280963897,52.94871750354767 L25.10413280963897,52.94871750354767 Q24.484132809638993,53.25871750354767 24.044132809638967,53.44871750354767 L24.044132809638967,53.44871750354767 L24.044132809638967,53.44871750354767 Q23.61413280963899,53.63871750354767 23.61413280963899,53.50871750354767 L23.61413280963899,53.50871750354767 L23.61413280963899,53.50871750354767 Q23.494132809638984,53.44871750354767 23.954132809638963,53.108717503547666 L23.954132809638963,53.108717503547666 L23.954132809638963,53.108717503547666 Q24.42413280963899,52.76871750354766 24.91413280963897,52.39871750354767 L24.91413280963897,52.39871750354767 L24.91413280963897,52.39871750354767 Q28.38413280963897,49.608717503547666 31.64413280963896,46.50871750354767 L31.64413280963896,46.50871750354767 L31.64413280963896,46.50871750354767 Q34.89413280963896,43.40871750354766 37.504132809638975,39.438717503547664 L37.504132809638975,39.438717503547664 L37.504132809638975,39.438717503547664 Q38.804132809638986,37.38871750354767 39.48413280963899,34.938717503547664 L39.48413280963899,34.938717503547664 L39.48413280963899,34.938717503547664 Q40.16413280963897,32.48871750354766 40.16413280963897,29.888717503547667 L40.16413280963897,29.888717503547667 L40.16413280963897,29.888717503547667 Q40.16413280963897,27.288717503547673 39.45413280963896,24.73871750354766 L39.45413280963896,24.73871750354766 L39.45413280963896,24.73871750354766 Q38.744132809638984,22.19871750354767 37.254132809638975,20.028717503547668 L37.254132809638975,20.028717503547668 L37.254132809638975,20.028717503547668 Q35.274132809638985,17.178717503547666 32.45413280963896,15.508717503547672 L32.45413280963896,15.508717503547672 L32.45413280963896,15.508717503547672 Q29.62413280963898,13.828717503547665 26.40413280963898,13.178717503547666 L26.40413280963898,13.178717503547666 L26.40413280963898,13.178717503547666 Q23.18413280963898,12.528717503547668 19.774132809638985,12.778717503547668 L19.774132809638985,12.778717503547668 L19.774132809638985,12.778717503547668 Q16.36413280963899,13.028717503547668 13.194132809638973,13.958717503547668 L13.194132809638973,13.958717503547668 L13.194132809638973,13.958717503547668 Q12.704132809638963,14.078717503547665 12.604132809638969,14.138717503547667 L12.604132809638969,14.138717503547667 L12.604132809638969,14.138717503547667 Q12.514132809638966,14.19871750354767 12.454132809638963,14.078717503547665 L12.454132809638963,14.078717503547665 L12.454132809638963,14.078717503547665 Q12.39413280963899,13.958717503547668 12.64413280963899,13.828717503547665 L12.64413280963899,13.828717503547665 L12.64413280963899,13.828717503547665 Q12.88413280963897,13.708717503547668 13.074132809638968,13.578717503547665 L13.074132809638968,13.578717503547665 L13.074132809638968,13.578717503547665 Q14.434132809638982,12.83871750354767 16.60413280963897,12.218717503547666 L16.60413280963897,12.218717503547666 L16.60413280963897,12.218717503547666 Q18.774132809638985,11.598717503547668 21.504132809638975,11.47871750354767 L21.504132809638975,11.47871750354767 L21.504132809638975,11.47871750354767 Q24.234132809638993,11.348717503547668 27.334132809638987,11.938717503547672 L27.334132809638987,11.938717503547672 L27.334132809638987,11.938717503547672 Q30.43413280963898,12.528717503547668 33.59413280963898,14.19871750354767 L33.59413280963898,14.19871750354767 L33.59413280963898,14.19871750354767 Q37.004132809638975,16.05871750354767 38.89413280963896,18.91871750354767 L38.89413280963896,18.91871750354767 L38.89413280963896,18.91871750354767 Q40.784132809638976,21.768717503547663 41.534132809638976,24.768717503547663 L41.534132809638976,24.768717503547663 L41.534132809638976,24.768717503547663 Q42.274132809638985,27.778717503547668 42.15413280963898,30.598717503547675 L42.15413280963898,30.598717503547675 L42.15413280963898,30.598717503547675 Q42.024132809638985,33.41871750354767 41.40413280963898,35.15871750354766 zM14.434132809638982,56.428717503547674 L14.434132809638982,56.428717503547674 L14.434132809638982,56.428717503547674 Q14.12413280963898,55.928717503547674 13.664132809638971,54.83871750354767 L13.664132809638971,54.83871750354767 L13.664132809638971,54.83871750354767 Q13.194132809638973,53.75871750354767 12.954132809638963,52.26871750354766 L12.954132809638963,52.26871750354766 L12.954132809638963,52.26871750354766 Q12.824132809638968,51.52871750354767 12.794132809638967,50.598717503547675 L12.794132809638967,50.598717503547675 L12.794132809638967,50.598717503547675 Q12.764132809638966,49.66871750354767 12.824132809638968,48.828717503547665 L12.824132809638968,48.828717503547665 L12.824132809638968,48.828717503547665 Q12.88413280963897,47.98871750354766 13.014132809638966,47.438717503547664 L13.014132809638966,47.438717503547664 L13.014132809638966,47.438717503547664 Q13.13413280963897,46.878717503547676 13.38413280963897,46.878717503547676 L13.38413280963897,46.878717503547676 L13.38413280963897,46.878717503547676 Q13.444132809638973,46.878717503547676 13.534132809638976,47.218717503547666 L13.534132809638976,47.218717503547666 L13.534132809638976,47.218717503547666 Q13.63413280963897,47.55871750354767 13.724132809638974,47.98871750354766 L13.724132809638974,47.98871750354766 L13.724132809638974,47.98871750354766 Q13.814132809638977,48.428717503547674 13.854132809638969,48.828717503547665 L13.854132809638969,48.828717503547665 L13.854132809638969,48.828717503547665 Q13.88413280963897,49.22871750354767 13.88413280963897,49.41871750354767 L13.88413280963897,49.41871750354767 L13.88413280963897,49.41871750354767 Q14.004132809638975,51.02871750354767 14.284132809638976,52.63871750354767 L14.284132809638976,52.63871750354767 L14.284132809638976,52.63871750354767 Q14.564132809638977,54.25871750354767 15.12413280963898,55.73871750354766 L15.12413280963898,55.73871750354766 L15.12413280963898,55.73871750354766 Q17.294132809638967,53.078717503547665 20.084132809638987,50.348717503547675 L20.084132809638987,50.348717503547675 L20.084132809638987,50.348717503547675 Q22.87413280963898,47.61871750354767 25.534132809638976,44.798717503547664 L25.534132809638976,44.798717503547664 L25.534132809638976,44.798717503547664 Q28.204132809638963,41.97871750354767 30.40413280963898,38.99871750354767 L30.40413280963898,38.99871750354767 L30.40413280963898,38.99871750354767 Q32.60413280963897,36.02871750354767 33.59413280963898,32.86871750354767 L33.59413280963898,32.86871750354767 L33.59413280963898,32.86871750354767 Q34.274132809638985,30.69871750354767 33.87413280963898,28.33871750354767 L33.87413280963898,28.33871750354767 L33.87413280963898,28.33871750354767 Q33.474132809638974,25.97871750354767 32.29413280963897,24.05871750354767 L32.29413280963897,24.05871750354767 L32.29413280963897,24.05871750354767 Q31.11413280963899,22.19871750354767 28.944132809638973,20.95871750354766 L28.944132809638973,20.95871750354766 L28.944132809638973,20.95871750354766 Q26.774132809638985,19.718717503547666 24.17413280963899,19.22871750354767 L24.17413280963899,19.22871750354767 L24.17413280963899,19.22871750354767 Q23.11413280963899,19.038717503547673 22.094132809638978,18.91871750354767 L22.094132809638978,18.91871750354767 L22.094132809638978,18.91871750354767 Q21.074132809638968,18.788717503547673 19.954132809638963,18.788717503547673 L19.954132809638963,18.788717503547673 L19.954132809638963,18.788717503547673 Q20.14413280963899,19.718717503547666 20.17413280963899,20.80871750354767 L20.17413280963899,20.80871750354767 L20.17413280963899,20.80871750354767 Q20.204132809638963,21.888717503547667 20.14413280963899,22.94871750354767 L20.14413280963899,22.94871750354767 L20.14413280963899,22.94871750354767 Q20.084132809638987,23.998717503547667 19.954132809638963,24.95871750354766 L19.954132809638963,24.95871750354766 L19.954132809638963,24.95871750354766 Q19.834132809638987,25.91871750354767 19.64413280963899,26.66871750354767 L19.64413280963899,26.66871750354767 L19.64413280963899,26.66871750354767 Q18.774132809638985,30.008717503547672 17.60413280963897,33.38871750354767 L17.60413280963897,33.38871750354767 L17.60413280963897,33.38871750354767 Q16.42413280963899,36.76871750354766 15.12413280963898,39.86871750354767 L15.12413280963898,39.86871750354767 L15.12413280963898,39.86871750354767 Q14.994132809638984,40.05871750354767 14.774132809638985,40.45871750354766 L14.774132809638985,40.45871750354766 L14.774132809638985,40.45871750354766 Q14.564132809638977,40.858717503547666 14.434132809638982,40.858717503547666 L14.434132809638982,40.858717503547666 L14.434132809638982,40.858717503547666 Q14.314132809638977,40.858717503547666 14.314132809638977,40.36871750354767 L14.314132809638977,40.36871750354767 L14.314132809638977,40.36871750354767 Q14.314132809638977,39.86871750354767 14.37413280963898,39.688717503547664 L14.37413280963898,39.688717503547664 L14.37413280963898,39.688717503547664 Q14.434132809638982,38.938717503547664 14.62413280963898,37.858717503547666 L14.62413280963898,37.858717503547666 L14.62413280963898,37.858717503547666 Q14.814132809638977,36.76871750354766 15.024132809638985,35.65871750354766 L15.024132809638985,35.65871750354766 L15.024132809638985,35.65871750354766 Q15.244132809638984,34.53871750354767 15.494132809638984,33.45871750354766 L15.494132809638984,33.45871750354766 L15.494132809638984,33.45871750354766 Q15.744132809638984,32.36871750354767 15.984132809638965,31.628717503547676 L15.984132809638965,31.628717503547676 L15.984132809638965,31.628717503547676 Q16.11413280963899,31.248717503547667 16.454132809638963,29.828717503547665 L16.454132809638963,29.828717503547665 L16.454132809638963,29.828717503547665 Q16.794132809638967,28.398717503547672 17.16413280963897,26.538717503547673 L17.16413280963897,26.538717503547673 L17.16413280963897,26.538717503547673 Q17.534132809638976,24.67871750354766 17.87413280963898,22.608717503547666 L17.87413280963898,22.608717503547666 L17.87413280963898,22.608717503547666 Q18.224132809638974,20.528717503547668 18.344132809638978,18.788717503547673 L18.344132809638978,18.788717503547673 L17.60413280963897,18.788717503547673 L17.60413280963897,18.788717503547673 Q17.474132809638974,21.20871750354766 16.91413280963897,23.748717503547667 L16.91413280963897,23.748717503547667 L16.91413280963897,23.748717503547667 Q16.36413280963899,26.288717503547673 15.584132809638987,28.86871750354767 L15.584132809638987,28.86871750354767 L15.584132809638987,28.86871750354767 Q14.814132809638977,31.438717503547664 13.974132809638974,34.03871750354767 L13.974132809638974,34.03871750354767 L13.974132809638974,34.03871750354767 Q13.13413280963897,36.64871750354767 12.514132809638966,39.24871750354767 L12.514132809638966,39.24871750354767 L12.514132809638966,39.24871750354767 Q12.39413280963899,39.80871750354767 12.17413280963899,41.16871750354767 L12.17413280963899,41.16871750354767 L12.17413280963899,41.16871750354767 Q11.954132809638963,42.53871750354767 11.834132809638987,44.23871750354766 L11.834132809638987,44.23871750354766 L11.834132809638987,44.23871750354766 Q11.714132809638983,45.94871750354767 11.714132809638983,47.83871750354767 L11.714132809638983,47.83871750354767 L11.714132809638983,47.83871750354767 Q11.714132809638983,49.72871750354767 11.984132809638965,51.428717503547674 L11.984132809638965,51.428717503547674 L11.984132809638965,51.428717503547674 Q12.264132809638966,53.13871750354767 12.824132809638968,54.49871750354767 L12.824132809638968,54.49871750354767 L12.824132809638968,54.49871750354767 Q13.38413280963897,55.86871750354767 14.434132809638982,56.428717503547674 zM35.024132809638985,34.65871750354766 L35.024132809638985,34.65871750354766 L35.024132809638985,34.65871750354766 Q33.65413280963898,37.88871750354767 31.274132809638985,40.858717503547666 L31.274132809638985,40.858717503547666 L31.274132809638985,40.858717503547666 Q28.88413280963897,43.83871750354767 26.094132809638978,46.598717503547675 L26.094132809638978,46.598717503547675 L26.094132809638978,46.598717503547675 Q23.304132809638986,49.358717503547666 20.35413280963897,51.83871750354767 L20.35413280963897,51.83871750354767 L20.35413280963897,51.83871750354767 Q17.41413280963897,54.318717503547674 14.994132809638984,56.548717503547664 L14.994132809638984,56.548717503547664 L14.994132809638984,56.548717503547664 Q14.504132809638975,56.97871750354767 13.724132809638974,56.63871750354767 L13.724132809638974,56.63871750354767 L13.724132809638974,56.63871750354767 Q12.954132809638963,56.298717503547664 12.574132809638968,55.80871750354767 L12.574132809638968,55.80871750354767 L12.574132809638968,55.80871750354767 Q11.274132809638985,54.068717503547674 10.65413280963898,51.89871750354767 L10.65413280963898,51.89871750354767 L10.65413280963898,51.89871750354767 Q10.034132809638976,49.72871750354767 9.914132809638971,47.39871750354767 L9.914132809638971,47.39871750354767 L9.914132809638971,47.39871750354767 Q9.784132809638976,45.078717503547665 10.064132809638977,42.688717503547664 L10.064132809638977,42.688717503547664 L10.064132809638977,42.688717503547664 Q10.344132809638978,40.30871750354767 10.90413280963898,38.068717503547674 L10.90413280963898,38.068717503547674 L10.90413280963898,38.068717503547674 Q12.14413280963899,32.928717503547674 13.724132809638974,28.11871750354767 L13.724132809638974,28.11871750354767 L13.724132809638974,28.11871750354767 Q15.304132809638986,23.318717503547674 16.054132809638986,18.97871750354767 L16.054132809638986,18.97871750354767 L16.054132809638986,18.97871750354767 Q12.704132809638963,19.348717503547675 10.064132809638977,20.498717503547667 L10.064132809638977,20.498717503547667 L10.064132809638977,20.498717503547667 Q7.434132809638982,21.638717503547667 6.564132809638977,23.258717503547672 L6.564132809638977,23.258717503547672 L6.564132809638977,23.258717503547672 Q6.564132809638977,23.378717503547676 6.474132809638974,23.378717503547676 L6.474132809638974,23.378717503547676 L6.474132809638974,23.378717503547676 Q6.374132809638979,23.378717503547676 6.504132809638975,22.878717503547676 L6.504132809638975,22.878717503547676 L6.504132809638975,22.878717503547676 Q6.994132809638984,21.14871750354766 8.92413280963899,19.878717503547676 L8.92413280963899,19.878717503547676 L8.92413280963899,19.878717503547676 Q10.844132809638978,18.608717503547666 13.504132809638975,17.888717503547667 L13.504132809638975,17.888717503547667 L13.504132809638975,17.888717503547667 Q16.17413280963899,17.178717503547666 19.244132809638984,17.05871750354767 L19.244132809638984,17.05871750354767 L19.244132809638984,17.05871750354767 Q22.314132809638977,16.928717503547666 25.224132809638974,17.428717503547666 L25.224132809638974,17.428717503547666 L25.224132809638974,17.428717503547666 Q28.38413280963897,17.98871750354767 30.714132809638983,19.818717503547674 L30.714132809638983,19.818717503547674 L30.714132809638983,19.818717503547674 Q33.034132809638976,21.638717503547667 34.37413280963898,24.08871750354767 L34.37413280963898,24.08871750354767 L34.37413280963898,24.08871750354767 Q35.70413280963896,26.538717503547673 35.92413280963899,29.328717503547665 L35.92413280963899,29.328717503547665 L35.92413280963899,29.328717503547665 Q36.13413280963897,32.11871750354767 35.024132809638985,34.65871750354766 zM21.694132809638973,20.58871750354767 L21.694132809638973,20.58871750354767 L21.694132809638973,20.58871750354767 Q22.43413280963898,22.19871750354767 22.284132809638976,24.80871750354767 L22.284132809638976,24.80871750354767 L22.284132809638976,24.80871750354767 Q22.12413280963898,27.408717503547663 21.564132809638977,30.22871750354767 L21.564132809638977,30.22871750354767 L21.564132809638977,30.22871750354767 Q21.014132809638966,33.048717503547664 20.294132809638967,35.65871750354766 L20.294132809638967,35.65871750354766 L20.294132809638967,35.65871750354766 Q19.584132809638987,38.25871750354767 19.214132809638983,39.86871750354767 L19.214132809638983,39.86871750354767 L19.214132809638983,39.86871750354767 Q18.464132809638983,42.848717503547675 17.41413280963897,45.818717503547674 L17.41413280963897,45.818717503547674 L17.41413280963897,45.818717503547674 Q16.36413280963899,48.798717503547664 15.67413280963899,51.02871750354767 L15.67413280963899,51.02871750354767 L15.67413280963899,51.02871750354767 Q15.364132809638988,51.89871750354767 15.244132809638984,51.89871750354767 L15.244132809638984,51.89871750354767 L15.244132809638984,51.89871750354767 Q15.054132809638986,51.89871750354767 15.054132809638986,51.55871750354767 L15.054132809638986,51.55871750354767 L15.054132809638986,51.55871750354767 Q15.054132809638986,51.218717503547666 15.054132809638986,50.90871750354766 L15.054132809638986,50.90871750354766 L15.054132809638986,50.90871750354766 Q15.244132809638984,46.318717503547674 16.39413280963899,41.858717503547666 L16.39413280963899,41.858717503547666 L16.39413280963899,41.858717503547666 Q17.534132809638976,37.38871750354767 18.90413280963898,32.798717503547664 L18.90413280963898,32.798717503547664 L18.90413280963898,32.798717503547664 Q19.704132809638963,30.008717503547672 20.454132809638963,26.97871750354767 L20.454132809638963,26.97871750354767 L20.454132809638963,26.97871750354767 Q21.194132809638973,23.93871750354768 21.324132809638968,20.58871750354767 L21.324132809638968,20.58871750354767 L21.324132809638968,20.58871750354767 Q21.324132809638968,20.158717503547678 21.444132809638973,20.08871750354767 L21.444132809638973,20.08871750354767 L21.444132809638973,20.08871750354767 Q21.504132809638975,20.08871750354767 21.564132809638977,20.278717503547668 L21.564132809638977,20.278717503547668 L21.564132809638977,20.278717503547668 Q21.63413280963897,20.468717503547666 21.694132809638973,20.58871750354767 zM29.074132809638968,46.318717503547674 L29.074132809638968,46.318717503547674 L29.074132809638968,46.318717503547674 Q29.13413280963897,46.378717503547676 28.824132809638968,46.818717503547674 L28.824132809638968,46.818717503547674 L28.824132809638968,46.818717503547674 Q28.514132809638966,47.24871750354767 28.044132809638967,47.77871750354767 L28.044132809638967,47.77871750354767 L28.044132809638967,47.77871750354767 Q27.584132809638987,48.298717503547664 27.11413280963899,48.828717503547665 L27.11413280963899,48.828717503547665 L27.11413280963899,48.828717503547665 Q26.65413280963898,49.358717503547666 26.464132809638983,49.53871750354767 L26.464132809638983,49.53871750354767 L26.464132809638983,49.53871750354767 Q25.16413280963897,50.848717503547675 23.834132809638987,52.178717503547674 L23.834132809638987,52.178717503547674 L23.834132809638987,52.178717503547674 Q22.494132809638984,53.50871750354767 21.074132809638968,54.438717503547664 L21.074132809638968,54.438717503547664 L15.494132809638984,57.97871750354767 L15.494132809638984,57.97871750354767 Q15.364132809638988,58.03871750354767 15.15413280963898,58.098717503547675 L15.15413280963898,58.098717503547675 L15.15413280963898,58.098717503547675 Q14.934132809638982,58.15871750354766 14.814132809638977,58.098717503547675 L14.814132809638977,58.098717503547675 L14.814132809638977,58.098717503547675 Q14.684132809638982,58.03871750354767 14.714132809638983,57.90871750354766 L14.714132809638983,57.90871750354766 L14.714132809638983,57.90871750354766 Q14.744132809638984,57.78871750354767 14.814132809638977,57.66871750354767 L14.814132809638977,57.66871750354767 L14.814132809638977,57.66871750354767 Q14.87413280963898,57.53871750354767 14.994132809638984,57.41871750354767 L14.994132809638984,57.41871750354767 L14.994132809638984,57.41871750354767 Q16.054132809638986,56.66871750354767 17.38413280963897,55.55871750354767 L17.38413280963897,55.55871750354767 L17.38413280963897,55.55871750354767 Q18.714132809638983,54.438717503547664 20.14413280963899,53.25871750354767 L20.14413280963899,53.25871750354767 L20.14413280963899,53.25871750354767 Q21.194132809638973,52.458717503547675 22.65413280963898,51.218717503547666 L22.65413280963898,51.218717503547666 L22.65413280963898,51.218717503547666 Q24.11413280963899,49.97871750354767 25.504132809638975,48.858717503547666 L25.504132809638975,48.858717503547666 L25.504132809638975,48.858717503547666 Q26.90413280963898,47.74871750354767 27.92413280963899,46.968717503547666 L27.92413280963899,46.968717503547666 L27.92413280963899,46.968717503547666 Q28.944132809638973,46.19871750354767 29.074132809638968,46.318717503547674 zM52.014132809638966,36.51871750354766 L52.014132809638966,36.51871750354766 L52.014132809638966,36.51871750354766 Q51.70413280963896,38.688717503547664 51.70413280963896,40.73871750354766 L51.70413280963896,40.73871750354766 L51.70413280963896,40.73871750354766 Q51.70413280963896,42.78871750354767 52.014132809638966,44.578717503547665 L52.014132809638966,44.578717503547665 L52.014132809638966,44.578717503547665 Q52.32413280963897,46.378717503547676 52.90413280963901,47.83871750354767 L52.90413280963901,47.83871750354767 L52.90413280963901,47.83871750354767 Q53.494132809638984,49.298717503547664 54.424132809639,50.28871750354767 L54.424132809639,50.28871750354767 L54.424132809639,50.28871750354767 Q55.604132809639,51.52871750354767 57.494132809638984,52.048717503547664 L57.494132809638984,52.048717503547664 L57.494132809638984,52.048717503547664 Q59.38413280963897,52.578717503547665 61.744132809638984,52.26871750354766 L61.744132809638984,52.26871750354766 L61.744132809638984,52.26871750354766 Q62.36413280963899,49.848717503547675 63.20413280963896,47.61871750354767 L63.20413280963896,47.61871750354767 L63.20413280963896,47.61871750354767 Q64.034132809639,45.38871750354767 64.81413280963898,43.27871750354767 L64.81413280963898,43.27871750354767 L64.81413280963898,43.27871750354767 Q65.58413280963896,41.16871750354767 66.14413280963896,39.128717503547676 L66.14413280963896,39.128717503547676 L66.14413280963896,39.128717503547676 Q66.70413280963896,37.078717503547665 66.70413280963896,35.098717503547675 L66.70413280963896,35.098717503547675 L66.70413280963896,35.098717503547675 Q66.70413280963896,34.90871750354766 66.76413280963897,34.90871750354766 L66.76413280963897,34.90871750354766 L66.76413280963897,34.90871750354766 Q66.82413280963897,34.90871750354766 66.92413280963899,35.098717503547675 L66.92413280963899,35.098717503547675 L66.92413280963899,35.098717503547675 Q67.01413280963897,35.27871750354767 67.01413280963897,35.348717503547675 L67.01413280963897,35.348717503547675 L67.01413280963897,35.348717503547675 Q67.75413280963897,37.63871750354767 67.47413280963895,39.968717503547666 L67.47413280963895,39.968717503547666 L67.47413280963895,39.968717503547666 Q67.20413280963896,42.28871750354767 66.42413280963899,44.70871750354766 L66.42413280963899,44.70871750354766 L66.42413280963899,44.70871750354766 Q65.65413280963901,47.128717503547676 64.65413280963901,49.63871750354767 L64.65413280963901,49.63871750354767 L64.65413280963901,49.63871750354767 Q63.664132809639,52.14871750354767 63.044132809638995,54.80871750354767 L63.044132809638995,54.80871750354767 L63.044132809638995,54.80871750354767 Q62.73413280963899,55.98871750354766 62.67413280963899,57.568717503547674 L62.67413280963899,57.568717503547674 L62.67413280963899,57.568717503547674 Q62.61413280963899,59.14871750354767 62.89413280963896,60.798717503547664 L62.89413280963896,60.798717503547664 L62.89413280963896,60.798717503547664 Q63.17413280963899,62.438717503547664 63.88413280963897,64.04871750354766 L63.88413280963897,64.04871750354766 L63.88413280963897,64.04871750354766 Q64.59413280963895,65.65871750354766 65.89413280963896,66.89871750354767 L65.89413280963896,66.89871750354767 L65.89413280963896,66.89871750354767 Q65.96413280963895,67.02871750354767 66.08413280963896,67.14871750354767 L66.08413280963896,67.14871750354767 L66.14413280963896,67.20871750354766 L66.14413280963896,67.20871750354766 Q66.14413280963896,67.20871750354766 65.96413280963895,67.20871750354766 L65.96413280963895,67.20871750354766 L65.96413280963895,67.20871750354766 Q65.89413280963896,67.20871750354766 65.83413280963896,67.14871750354767 L65.83413280963896,67.14871750354767 L65.83413280963896,67.14871750354767 Q64.164132809639,66.03871750354767 63.07413280963897,64.60871750354767 L63.07413280963897,64.60871750354767 L63.07413280963897,64.60871750354767 Q61.994132809638984,63.178717503547674 61.464132809638954,61.66871750354767 L61.464132809638954,61.66871750354767 L61.464132809638954,61.66871750354767 Q60.93413280963898,60.14871750354767 60.84413280963895,58.62871750354766 L60.84413280963895,58.62871750354766 L60.84413280963895,58.62871750354766 Q60.754132809638975,57.108717503547666 61.004132809638975,55.86871750354767 L61.004132809638975,55.86871750354767 L61.004132809638975,55.86871750354767 Q59.14413280963896,56.298717503547664 57.31413280963898,55.98871750354766 L57.31413280963898,55.98871750354766 L57.31413280963898,55.98871750354766 Q55.48413280963899,55.678717503547674 53.93413280963898,54.87871750354766 L53.93413280963898,54.87871750354766 L53.93413280963898,54.87871750354766 Q53.62413280963898,54.74871750354767 53.284132809639004,54.37871750354766 L53.284132809639004,54.37871750354766 L53.284132809639004,54.37871750354766 Q52.94413280963897,54.00871750354767 53.004132809638975,53.94871750354767 L53.004132809638975,53.94871750354767 L53.004132809638975,53.94871750354767 Q53.004132809638975,53.94871750354767 53.964132809638954,54.098717503547675 L53.964132809638954,54.098717503547675 L53.964132809638954,54.098717503547675 Q54.924132809639,54.25871750354767 56.13413280963897,54.40871750354766 L56.13413280963897,54.40871750354766 L56.13413280963897,54.40871750354766 Q57.34413280963895,54.568717503547674 58.554132809638986,54.65871750354766 L58.554132809638986,54.65871750354766 L58.554132809638986,54.65871750354766 Q59.764132809638966,54.74871750354767 60.31413280963898,54.688717503547664 L60.31413280963898,54.688717503547664 L60.31413280963898,54.688717503547664 Q60.504132809638975,54.62871750354766 60.724132809638945,54.598717503547675 L60.724132809638945,54.598717503547675 L60.724132809638945,54.598717503547675 Q60.93413280963898,54.568717503547674 61.244132809638984,54.438717503547664 L61.244132809638984,54.438717503547664 L61.244132809638984,54.438717503547664 Q61.244132809638984,54.12871750354766 61.31413280963898,53.848717503547675 L61.31413280963898,53.848717503547675 L61.31413280963898,53.848717503547675 Q61.37413280963898,53.568717503547674 61.494132809638984,53.25871750354767 L61.494132809638984,53.25871750354767 L61.494132809638984,53.25871750354767 Q59.32413280963897,53.75871750354767 57.284132809639004,53.38871750354767 L57.284132809639004,53.38871750354767 L57.284132809639004,53.38871750354767 Q55.23413280963899,53.01871750354766 53.62413280963898,51.64871750354767 L53.62413280963898,51.64871750354767 L53.62413280963898,51.64871750354767 Q52.32413280963897,50.53871750354767 51.544132809638995,48.95871750354766 L51.544132809638995,48.95871750354766 L51.544132809638995,48.95871750354766 Q50.77413280963896,47.36871750354767 50.36413280963899,45.50871750354767 L50.36413280963899,45.50871750354767 L50.36413280963899,45.50871750354767 Q49.964132809638954,43.64871750354767 49.90413280963901,41.63871750354767 L49.90413280963901,41.63871750354767 L49.90413280963901,41.63871750354767 Q49.84413280963895,39.61871750354767 50.02413280963896,37.63871750354767 L50.02413280963896,37.63871750354767 L50.02413280963896,37.63871750354767 Q50.27413280963896,34.47871750354767 51.264132809638966,31.248717503547667 L51.264132809638966,31.248717503547667 L51.264132809638966,31.248717503547667 Q52.254132809638975,28.028717503547668 53.90413280963901,25.268717503547663 L53.90413280963901,25.268717503547663 L53.90413280963901,25.268717503547663 Q55.544132809638995,22.508717503547672 57.804132809638986,20.498717503547667 L57.804132809638986,20.498717503547667 L57.804132809638986,20.498717503547667 Q60.07413280963897,18.47871750354767 62.92413280963899,17.678717503547666 L62.92413280963899,17.678717503547666 L62.92413280963899,17.678717503547666 Q64.22413280963895,17.29871750354767 65.71413280963895,17.36871750354767 L65.71413280963895,17.36871750354767 L65.71413280963895,17.36871750354767 Q67.20413280963896,17.428717503547666 68.50413280963897,17.91871750354767 L68.50413280963897,17.91871750354767 L68.50413280963897,17.91871750354767 Q69.80413280963899,18.41871750354767 70.76413280963897,19.318717503547674 L70.76413280963897,19.318717503547674 L70.76413280963897,19.318717503547674 Q71.72413280963895,20.218717503547666 71.97413280963895,21.578717503547665 L71.97413280963895,21.578717503547665 L71.97413280963895,21.578717503547665 Q72.284132809639,23.068717503547674 71.72413280963895,24.468717503547666 L71.72413280963895,24.468717503547666 L71.72413280963895,24.468717503547666 Q71.164132809639,25.858717503547666 70.17413280963899,26.878717503547676 L70.17413280963899,26.878717503547676 L70.17413280963899,26.878717503547676 Q69.18413280963898,27.908717503547663 67.94413280963897,28.33871750354767 L67.94413280963897,28.33871750354767 L67.94413280963897,28.33871750354767 Q66.70413280963896,28.768717503547663 65.58413280963896,28.278717503547668 L65.58413280963896,28.278717503547668 L65.58413280963896,28.278717503547668 Q65.15413280963901,28.148717503547672 65.40413280963901,28.028717503547668 L65.40413280963901,28.028717503547668 L65.40413280963901,28.028717503547668 Q65.52413280963896,27.968717503547666 65.58413280963896,28.028717503547668 L65.58413280963896,28.028717503547668 L65.58413280963896,28.028717503547668 Q65.65413280963901,28.08871750354767 65.77413280963896,28.08871750354767 L65.77413280963896,28.08871750354767 L65.77413280963896,28.08871750354767 Q66.51413280963898,28.218717503547666 67.44413280963897,27.778717503547668 L67.44413280963897,27.778717503547668 L67.44413280963897,27.778717503547668 Q68.37413280963898,27.348717503547675 69.15413280963901,26.538717503547673 L69.15413280963901,26.538717503547673 L69.15413280963901,26.538717503547673 Q69.92413280963899,25.73871750354766 70.39413280963896,24.64871750354766 L70.39413280963896,24.64871750354766 L70.39413280963896,24.64871750354766 Q70.854132809639,23.568717503547674 70.67413280963899,22.44871750354767 L70.67413280963899,22.44871750354767 L70.67413280963899,22.44871750354767 Q70.484132809639,21.518717503547663 69.89413280963896,20.83871750354767 L69.89413280963896,20.83871750354767 L69.89413280963896,20.83871750354767 Q69.30413280963899,20.158717503547678 68.37413280963898,19.718717503547666 L68.37413280963898,19.718717503547666 L68.37413280963898,19.718717503547666 Q67.44413280963897,19.288717503547673 66.30413280963899,19.158717503547678 L66.30413280963899,19.158717503547678 L66.30413280963899,19.158717503547678 Q65.15413280963901,19.038717503547673 63.854132809639,19.288717503547673 L63.854132809639,19.288717503547673 L63.854132809639,19.288717503547673 Q61.554132809638986,19.718717503547666 59.57413280963897,21.36871750354767 L59.57413280963897,21.36871750354767 L59.57413280963897,21.36871750354767 Q57.59413280963895,23.008717503547672 56.044132809638995,25.398717503547672 L56.044132809638995,25.398717503547672 L56.044132809638995,25.398717503547672 Q54.494132809638984,27.778717503547668 53.43413280963898,30.69871750354767 L53.43413280963898,30.69871750354767 L53.43413280963898,30.69871750354767 Q52.38413280963897,33.608717503547666 52.014132809638966,36.51871750354766 zM56.90413280963901,56.97871750354767 L56.90413280963901,56.97871750354767 L56.90413280963901,56.97871750354767 Q57.77413280963896,57.108717503547666 57.90413280963901,57.16871750354767 L57.90413280963901,57.16871750354767 L57.90413280963901,57.16871750354767 Q58.02413280963896,57.22871750354767 56.974132809638945,57.22871750354767 L56.974132809638945,57.22871750354767 L56.974132809638945,57.22871750354767 Q55.23413280963899,57.22871750354767 53.464132809638954,56.66871750354767 L53.464132809638954,56.66871750354767 L53.464132809638954,56.66871750354767 Q51.70413280963896,56.11871750354767 50.15413280963901,55.08871750354767 L50.15413280963901,55.08871750354767 L50.15413280963901,55.08871750354767 Q48.604132809639,54.068717503547674 47.36413280963899,52.578717503547665 L47.36413280963899,52.578717503547665 L47.36413280963899,52.578717503547665 Q46.12413280963898,51.08871750354767 45.504132809638975,49.298717503547664 L45.504132809638975,49.298717503547664 L45.504132809638975,49.298717503547664 Q44.13413280963897,45.38871750354767 43.88413280963897,41.818717503547674 L43.88413280963897,41.818717503547674 L43.88413280963897,41.818717503547674 Q43.64413280963896,38.25871750354767 44.19413280963897,34.65871750354766 L44.19413280963897,34.65871750354766 L44.19413280963897,34.65871750354766 Q44.504132809638975,32.73871750354766 45.19413280963897,30.258717503547672 L45.19413280963897,30.258717503547672 L45.19413280963897,30.258717503547672 Q45.87413280963898,27.778717503547668 47.08413280963896,25.178717503547674 L47.08413280963896,25.178717503547674 L47.08413280963896,25.178717503547674 Q48.294132809638995,22.568717503547674 50.08413280963896,20.028717503547668 L50.08413280963896,20.028717503547668 L50.08413280963896,20.028717503547668 Q51.88413280963897,17.48871750354767 54.424132809639,15.37871750354767 L54.424132809639,15.37871750354767 L54.424132809639,15.37871750354767 Q57.09413280963895,13.148717503547665 60.38413280963897,12.438717503547672 L60.38413280963897,12.438717503547672 L60.38413280963897,12.438717503547672 Q63.664132809639,11.718717503547666 66.64413280963896,12.218717503547666 L66.64413280963896,12.218717503547666 L66.64413280963896,12.218717503547666 Q69.61413280963899,12.718717503547666 71.914132809639,14.358717503547666 L71.914132809639,14.358717503547666 L71.914132809639,14.358717503547666 Q74.20413280963896,15.998717503547667 74.95413280963896,18.41871750354767 L74.95413280963896,18.41871750354767 L74.95413280963896,18.41871750354767 Q75.01413280963897,18.538717503547673 75.13413280963897,18.91871750354767 L75.13413280963897,18.91871750354767 L75.13413280963897,18.91871750354767 Q75.26413280963897,19.288717503547673 75.13413280963897,19.348717503547675 L75.13413280963897,19.348717503547675 L75.13413280963897,19.348717503547675 Q75.01413280963897,19.408717503547678 74.88413280963897,19.098717503547675 L74.88413280963897,19.098717503547675 L74.88413280963897,19.098717503547675 Q74.76413280963897,18.788717503547673 74.45413280963896,18.41871750354767 L74.45413280963896,18.41871750354767 L74.45413280963896,18.41871750354767 Q71.854132809639,14.888717503547667 68.56413280963898,13.958717503547668 L68.56413280963898,13.958717503547668 L68.56413280963898,13.958717503547668 Q65.27413280963896,13.028717503547668 62.08413280963896,13.76871750354767 L62.08413280963896,13.76871750354767 L62.08413280963896,13.76871750354767 Q58.89413280963896,14.508717503547672 56.07413280963897,16.58871750354767 L56.07413280963897,16.58871750354767 L56.07413280963897,16.58871750354767 Q53.254132809638975,18.66871750354767 51.57413280963897,21.20871750354766 L51.57413280963897,21.20871750354766 L51.57413280963897,21.20871750354766 Q48.664132809639,25.48871750354766 47.23413280963899,30.538717503547673 L47.23413280963899,30.538717503547673 L47.23413280963899,30.538717503547673 Q45.81413280963898,35.58871750354767 45.87413280963898,40.798717503547664 L45.87413280963898,40.798717503547664 L45.87413280963898,40.798717503547664 Q45.93413280963898,43.33871750354767 46.43413280963898,45.94871750354767 L46.43413280963898,45.94871750354767 L46.43413280963898,45.94871750354767 Q46.924132809639,48.548717503547664 48.224132809638945,51.02871750354767 L48.224132809638945,51.02871750354767 L48.224132809638945,51.02871750354767 Q49.464132809638954,53.44871750354767 51.914132809639,55.05871750354767 L51.914132809639,55.05871750354767 L51.914132809639,55.05871750354767 Q54.36413280963899,56.66871750354767 56.90413280963901,56.97871750354767 zM48.104132809639,33.48871750354766 L48.104132809639,33.48871750354766 L48.104132809639,33.48871750354766 Q48.534132809639004,30.258717503547672 49.59413280963895,27.128717503547676 L49.59413280963895,27.128717503547676 L49.59413280963895,27.128717503547676 Q50.64413280963896,23.998717503547667 52.414132809639,21.45871750354766 L52.414132809639,21.45871750354766 L52.414132809639,21.45871750354766 Q54.18413280963898,18.91871750354767 56.784132809639004,17.05871750354767 L56.784132809639004,17.05871750354767 L56.784132809639004,17.05871750354767 Q59.38413280963897,15.19871750354767 62.92413280963899,14.44871750354767 L62.92413280963899,14.44871750354767 L62.92413280963899,14.44871750354767 Q64.104132809639,14.19871750354767 65.61413280963899,14.22871750354767 L65.61413280963899,14.22871750354767 L65.61413280963899,14.22871750354767 Q67.13413280963897,14.26871750354767 68.65413280963901,14.788717503547666 L68.65413280963901,14.788717503547666 L68.65413280963901,14.788717503547666 Q70.17413280963899,15.318717503547667 71.50413280963897,16.36871750354767 L71.50413280963897,16.36871750354767 L71.50413280963897,16.36871750354767 Q72.84413280963895,17.428717503547666 73.71413280963895,19.288717503547673 L73.71413280963895,19.288717503547673 L73.71413280963895,19.288717503547673 Q74.51413280963898,21.08871750354767 74.294132809639,22.848717503547675 L74.294132809639,22.848717503547675 L74.294132809639,22.848717503547675 Q74.08413280963896,24.61871750354767 73.30413280963899,26.008717503547672 L73.30413280963899,26.008717503547672 L73.30413280963899,26.008717503547672 Q72.534132809639,27.408717503547663 71.38413280963897,28.33871750354767 L71.38413280963897,28.33871750354767 L71.38413280963897,28.33871750354767 Q70.234132809639,29.268717503547663 69.12413280963898,29.388717503547667 L69.12413280963898,29.388717503547667 L69.12413280963898,29.388717503547667 Q68.93413280963898,29.45871750354766 68.65413280963901,29.41871750354767 L68.65413280963901,29.41871750354767 L68.65413280963901,29.41871750354767 Q68.37413280963898,29.388717503547667 68.37413280963898,29.268717503547663 L68.37413280963898,29.268717503547663 L68.37413280963898,29.268717503547663 Q68.37413280963898,29.148717503547672 68.44413280963897,29.178717503547674 L68.44413280963897,29.178717503547674 L68.44413280963897,29.178717503547674 Q68.50413280963897,29.20871750354766 69.12413280963898,28.95871750354766 L69.12413280963898,28.95871750354766 L69.12413280963898,28.95871750354766 Q69.55413280963899,28.768717503547663 70.14413280963896,28.30871750354767 L70.14413280963896,28.30871750354767 L70.14413280963896,28.30871750354767 Q70.734132809639,27.83871750354767 71.26413280963897,27.098717503547675 L71.26413280963897,27.098717503547675 L71.26413280963897,27.098717503547675 Q71.784132809639,26.358717503547666 72.22413280963895,25.358717503547666 L72.22413280963895,25.358717503547666 L72.22413280963895,25.358717503547666 Q72.65413280963901,24.36871750354767 72.784132809639,23.18871750354768 L72.784132809639,23.18871750354768 L72.784132809639,23.18871750354768 Q72.90413280963901,21.94871750354767 72.47413280963895,20.83871750354767 L72.47413280963895,20.83871750354767 L72.47413280963895,20.83871750354767 Q72.034132809639,19.718717503547666 71.20413280963896,18.818717503547674 L71.20413280963896,18.818717503547674 L71.20413280963896,18.818717503547674 Q70.36413280963899,17.91871750354767 69.24413280963898,17.29871750354767 L69.24413280963898,17.29871750354767 L69.24413280963898,17.29871750354767 Q68.13413280963897,16.678717503547666 66.95413280963896,16.498717503547667 L66.95413280963896,16.498717503547667 L66.95413280963896,16.498717503547667 Q63.294132809638995,15.938717503547672 60.31413280963898,17.458717503547668 L60.31413280963898,17.458717503547668 L60.31413280963898,17.458717503547668 Q57.34413280963895,18.97871750354767 55.044132809638995,21.608717503547666 L55.044132809638995,21.608717503547666 L55.044132809638995,21.608717503547666 Q52.754132809638975,24.248717503547667 51.20413280963896,27.498717503547667 L51.20413280963896,27.498717503547667 L51.20413280963896,27.498717503547667 Q49.65413280963901,30.758717503547672 48.84413280963895,33.66871750354767 L48.84413280963895,33.66871750354767 L48.84413280963895,33.66871750354767 Q48.84413280963895,33.72871750354767 48.724132809638945,34.108717503547666 L48.724132809638945,34.108717503547666 L48.724132809638945,34.108717503547666 Q48.604132809639,34.47871750354767 48.474132809638945,34.90871750354766 L48.474132809638945,34.90871750354766 L48.474132809638945,34.90871750354766 Q48.354132809639,35.348717503547675 48.264132809638966,35.688717503547664 L48.264132809638966,35.688717503547664 L48.264132809638966,35.688717503547664 Q48.164132809639,36.02871750354767 48.104132809639,36.02871750354767 L48.104132809639,36.02871750354767 L48.104132809639,36.02871750354767 Q48.044132809638995,36.02871750354767 48.014132809638966,35.688717503547664 L48.014132809638966,35.688717503547664 L48.014132809638966,35.688717503547664 Q47.98413280963899,35.348717503547675 48.014132809638966,34.878717503547676 L48.014132809638966,34.878717503547676 L48.014132809638966,34.878717503547676 Q48.044132809638995,34.41871750354767 48.07413280963897,34.00871750354767 L48.07413280963897,34.00871750354767 L48.07413280963897,34.00871750354767 Q48.104132809639,33.608717503547666 48.104132809639,33.48871750354766 zM69.37413280963898,55.36871750354767 L69.37413280963898,55.36871750354767 L69.37413280963898,55.36871750354767 Q68.99413280963898,56.73871750354766 68.284132809639,58.80871750354767 L68.284132809639,58.80871750354767 L68.284132809639,58.80871750354767 Q67.57413280963897,60.88871750354767 67.01413280963897,62.62871750354766 L67.01413280963897,62.62871750354766 L67.01413280963897,62.62871750354766 Q66.82413280963897,63.11871750354767 66.70413280963896,63.11871750354767 L66.70413280963896,63.11871750354767 L66.70413280963896,63.11871750354767 Q66.45413280963896,63.11871750354767 66.42413280963899,62.90871750354766 L66.42413280963899,62.90871750354766 L66.42413280963899,62.90871750354766 Q66.39413280963896,62.688717503547664 66.39413280963896,62.55871750354767 L66.39413280963896,62.55871750354767 L66.39413280963896,62.55871750354767 Q66.20413280963896,60.88871750354767 66.33413280963896,59.36871750354767 L66.33413280963896,59.36871750354767 L66.33413280963896,59.36871750354767 Q66.45413280963896,57.848717503547675 66.82413280963897,56.358717503547666 L66.82413280963897,56.358717503547666 L66.82413280963897,56.358717503547666 Q67.20413280963896,54.87871750354766 67.72413280963895,53.38871750354767 L67.72413280963895,53.38871750354767 L67.72413280963895,53.38871750354767 Q68.25413280963897,51.89871750354767 68.81413280963898,50.22871750354767 L68.81413280963898,50.22871750354767 L68.81413280963898,50.22871750354767 Q69.55413280963899,48.05871750354767 70.17413280963899,45.97871750354767 L70.17413280963899,45.97871750354767 L70.17413280963899,45.97871750354767 Q70.794132809639,43.89871750354767 70.92413280963899,41.298717503547664 L70.92413280963899,41.298717503547664 L70.92413280963899,41.298717503547664 Q70.92413280963899,40.98871750354766 70.95413280963896,40.95871750354766 L70.95413280963896,40.95871750354766 L70.95413280963896,40.95871750354766 Q70.984132809639,40.928717503547674 71.104132809639,40.928717503547674 L71.104132809639,40.928717503547674 L71.294132809639,41.298717503547664 L71.294132809639,41.298717503547664 Q71.914132809639,42.598717503547675 71.81413280963898,44.51871750354766 L71.81413280963898,44.51871750354766 L71.81413280963898,44.51871750354766 Q71.72413280963895,46.438717503547664 71.294132809639,48.48871750354766 L71.294132809639,48.48871750354766 L71.294132809639,48.48871750354766 Q70.854132809639,50.53871750354767 70.26413280963897,52.39871750354767 L70.26413280963897,52.39871750354767 L70.26413280963897,52.39871750354767 Q69.68413280963898,54.25871750354767 69.37413280963898,55.36871750354767 zM69.55413280963899,45.50871750354767 L69.55413280963899,45.50871750354767 L69.55413280963899,45.50871750354767 Q68.68413280963898,47.86871750354767 67.63413280963897,50.40871750354766 L67.63413280963897,50.40871750354766 L67.63413280963897,50.40871750354766 Q66.58413280963896,52.94871750354767 65.46413280963895,55.30871750354767 L65.46413280963895,55.30871750354767 L65.46413280963895,55.30871750354767 Q65.40413280963901,55.36871750354767 65.24413280963898,55.708717503547675 L65.24413280963898,55.708717503547675 L65.24413280963898,55.708717503547675 Q65.09413280963895,56.048717503547664 64.90413280963901,55.98871750354766 L64.90413280963901,55.98871750354766 L64.90413280963901,55.98871750354766 Q64.784132809639,55.928717503547674 64.784132809639,55.58871750354767 L64.784132809639,55.58871750354767 L64.784132809639,55.58871750354767 Q64.784132809639,55.24871750354767 64.784132809639,55.05871750354767 L64.784132809639,55.05871750354767 L64.784132809639,55.05871750354767 Q64.784132809639,54.49871750354767 64.90413280963901,53.66871750354767 L64.90413280963901,53.66871750354767 L64.90413280963901,53.66871750354767 Q65.034132809639,52.828717503547665 65.21413280963895,51.98871750354766 L65.21413280963895,51.98871750354766 L65.21413280963895,51.98871750354766 Q65.40413280963901,51.15871750354766 65.61413280963899,50.348717503547675 L65.61413280963899,50.348717503547675 L65.61413280963899,50.348717503547675 Q65.83413280963896,49.53871750354767 66.08413280963896,48.98871750354766 L66.08413280963896,48.98871750354766 L66.08413280963896,48.98871750354766 Q66.20413280963896,48.608717503547666 66.64413280963896,46.968717503547666 L66.64413280963896,46.968717503547666 L66.64413280963896,46.968717503547666 Q67.07413280963897,45.328717503547665 67.51413280963898,43.378717503547676 L67.51413280963898,43.378717503547676 L67.51413280963898,43.378717503547676 Q67.94413280963897,41.41871750354767 68.19413280963897,39.55871750354767 L68.19413280963897,39.55871750354767 L68.19413280963897,39.55871750354767 Q68.44413280963897,37.69871750354767 68.19413280963897,36.76871750354766 L68.19413280963897,36.76871750354766 L68.19413280963897,36.76871750354766 Q68.06413280963898,36.45871750354766 68.19413280963897,36.33871750354767 L68.19413280963897,36.33871750354767 L68.19413280963897,36.33871750354767 Q68.31413280963898,36.33871750354767 68.40413280963901,36.48871750354766 L68.40413280963901,36.48871750354766 L68.40413280963901,36.48871750354766 Q68.50413280963897,36.64871750354767 68.62413280963898,36.76871750354766 L68.62413280963898,36.76871750354766 L68.62413280963898,36.76871750354766 Q69.18413280963898,37.63871750354767 69.49413280963898,38.78871750354767 L69.49413280963898,38.78871750354767 L69.49413280963898,38.78871750354767 Q69.80413280963899,39.928717503547674 69.89413280963896,41.13871750354767 L69.89413280963896,41.13871750354767 L69.89413280963896,41.13871750354767 Q69.99413280963898,42.348717503547675 69.89413280963896,43.49871750354767 L69.89413280963896,43.49871750354767 L69.89413280963896,43.49871750354767 Q69.80413280963899,44.64871750354767 69.55413280963899,45.50871750354767 zM65.89413280963896,63.798717503547664 L65.89413280963896,63.798717503547664 L65.89413280963896,63.798717503547664 Q66.64413280963896,65.34871750354768 67.69413280963897,66.71871750354767 L67.69413280963897,66.71871750354767 L67.69413280963897,66.71871750354767 Q67.88413280963897,66.89871750354767 67.75413280963897,67.02871750354767 L67.75413280963897,67.02871750354767 L67.75413280963897,67.02871750354767 Q67.57413280963897,67.14871750354767 67.38413280963897,67.02871750354767 L67.38413280963897,67.02871750354767 L67.38413280963897,67.02871750354767 Q67.26413280963897,66.96871750354767 67.20413280963896,66.89871750354767 L67.20413280963896,66.89871750354767 L67.20413280963896,66.89871750354767 Q66.33413280963896,66.40871750354766 65.77413280963896,65.90871750354766 L65.77413280963896,65.90871750354766 L65.77413280963896,65.90871750354766 Q65.21413280963895,65.41871750354767 64.65413280963901,63.98871750354766 L64.65413280963901,63.98871750354766 L64.65413280963901,63.98871750354766 Q64.47413280963895,63.48871750354766 64.31413280963898,62.718717503547666 L64.31413280963898,62.718717503547666 L64.31413280963898,62.718717503547666 Q64.164132809639,61.938717503547664 64.104132809639,61.22871750354767 L64.104132809639,61.22871750354767 L64.104132809639,61.22871750354767 Q64.034132809639,60.51871750354766 64.06413280963898,60.01871750354766 L64.06413280963898,60.01871750354766 L64.06413280963898,60.01871750354766 Q64.104132809639,59.52871750354767 64.284132809639,59.58871750354767 L64.284132809639,59.58871750354767 L64.284132809639,59.58871750354767 Q64.59413280963895,59.58871750354767 64.81413280963898,60.328717503547665 L64.81413280963898,60.328717503547665 L64.81413280963898,60.328717503547665 Q65.034132809639,61.078717503547665 65.09413280963895,61.25871750354767 L65.09413280963895,61.25871750354767 L65.09413280963895,61.25871750354767 Q65.34413280963895,61.938717503547664 65.46413280963895,62.55871750354767 L65.46413280963895,62.55871750354767 L65.46413280963895,62.55871750354767 Q65.58413280963896,63.178717503547674 65.89413280963896,63.798717503547664 z" fill="#000000" id="svg_3"/></g></g></g></svg>