<svg xmlns="http://www.w3.org/2000/svg" width="124.74074309549223" height="75.70371150381737" style="background: rgba(0, 0, 0, 0);" preserveAspectRatio="xMidYMid"><rect id="backgroundrect" width="100%" height="100%" x="0" y="0" fill="none" stroke="none" class="" style=""/><defs><filter id="editing-hole" x="-100%" y="-100%" width="300%" height="300%"><feFlood flood-color="#000000" result="black"/><feMorphology operator="dilate" radius="2" in="SourceGraphic" result="erode"/><feGaussianBlur in="erode" stdDeviation="4" result="blur"/><feOffset in="blur" dx="2" dy="2" result="offset"/><feComposite operator="atop" in="offset" in2="black" result="merge"/><feComposite operator="in" in="merge" in2="SourceGraphic" result="inner-shadow"/></filter></defs><style>text {
  font-size: 64px;
  font-family: Arial Black;
  dominant-baseline: central;
  text-anchor: middle;
}</style><g class="currentLayer" style=""><title>Layer 1</title><g filter="url(#editing-hole)" id="svg_1" class=""><g id="svg_2"><path d="M56.9984417536986,52.2854946626729 L49.33558504634633,58.643190008149695 L49.33558504634633,58.643190008149695 Q47.51071084628143,60.174193956997094 44.676503570959376,60.96386967798154 L44.676503570959376,60.96386967798154 L44.676503570959376,60.96386967798154 Q41.850370960239374,61.76160331448622 38.01490527426221,61.76160331448622 L38.01490527426221,61.76160331448622 L18.15123035320155,61.76160331448622 L18.15123035320155,61.76160331448622 Q16.738164047841547,61.76160331448622 16.09219087967699,61.10891215734601 L16.09219087967699,61.10891215734601 L16.09219087967699,61.10891215734601 Q15.438143046910366,60.46427891572607 15.438143046910366,59.05414369968242 L15.438143046910366,59.05414369968242 L15.438143046910366,20.940203288902644 L15.438143046910366,20.940203288902644 Q15.438143046910366,20.174701314478945 15.648084326563836,19.64287889014249 L15.648084326563836,19.64287889014249 L15.648084326563836,19.64287889014249 Q15.858025606217335,19.111056465806023 16.269833500922235,18.756508182915052 L16.269833500922235,18.756508182915052 L23.868092891458023,12.350465344316758 L23.868092891458023,12.350465344316758 Q24.16685548173416,12.116785794229523 24.667484687061698,11.963685399344786 L24.667484687061698,11.963685399344786 L24.667484687061698,11.963685399344786 Q25.168113892389265,11.818642919980299 25.75756440833941,11.818642919980299 L25.75756440833941,11.818642919980299 L45.62123932940004,11.818642919980299 L45.62123932940004,11.818642919980299 Q53.34061868896669,11.818642919980299 57.03074041210682,14.93705622631682 L57.03074041210682,14.93705622631682 L57.03074041210682,14.93705622631682 Q60.7127874706449,18.055469532653355 60.7127874706449,24.405106962609903 L60.7127874706449,24.405106962609903 L60.7127874706449,42.761038517738086 L60.7127874706449,42.761038517738086 Q60.7127874706449,45.935857232716344 59.768051712204226,48.32100022671019 L59.768051712204226,48.32100022671019 L59.768051712204226,48.32100022671019 Q58.823315953763505,50.69808530518377 56.9984417536986,52.2854946626729 L56.9984417536986,52.2854946626729 zM25.75756440833941,54.759274727389474 L45.62123932940004,54.759274727389474 L45.62123932940004,54.759274727389474 Q52.99340811107824,54.759274727389474 56.55433520058544,51.81813556249843 L56.55433520058544,51.81813556249843 L56.55433520058544,51.81813556249843 Q60.12333695469472,48.87699639760741 60.12333695469472,42.761038517738086 L60.12333695469472,42.761038517738086 L60.12333695469472,24.405106962609903 L60.12333695469472,24.405106962609903 Q60.12333695469472,18.28914908274059 56.55433520058544,15.348009917849545 L56.55433520058544,15.348009917849545 L56.55433520058544,15.348009917849545 Q52.99340811107824,12.406870752958502 45.62123932940004,12.406870752958502 L45.62123932940004,12.406870752958502 L25.75756440833941,12.406870752958502 L25.75756440833941,12.406870752958502 Q24.635186028653443,12.406870752958502 24.134556823325934,12.906461515213973 L24.134556823325934,12.906461515213973 L24.134556823325934,12.906461515213973 Q23.633927617998395,13.406052277469435 23.633927617998395,14.526102534784105 L23.633927617998395,14.526102534784105 L23.633927617998395,52.640042945563884 L23.633927617998395,52.640042945563884 Q23.633927617998395,53.76009320287855 24.134556823325934,54.25968396513401 L24.134556823325934,54.25968396513401 L24.134556823325934,54.25968396513401 Q24.635186028653443,54.759274727389474 25.75756440833941,54.759274727389474 L25.75756440833941,54.759274727389474 zM44.32121832846886,49.465224230585605 L30.06136064123588,49.465224230585605 L30.06136064123588,17.700921249762374 L44.32121832846886,17.700921249762374 L44.32121832846886,17.700921249762374 Q47.33306822503618,17.700921249762374 49.190241083509314,18.345554491382334 L49.190241083509314,18.345554491382334 L49.190241083509314,18.345554491382334 Q51.04741394198248,18.99824564852253 52.048672352637546,20.08606424375621 L52.048672352637546,20.08606424375621 L52.048672352637546,20.08606424375621 Q53.04993076329265,21.173882838989872 53.405216005783174,22.67265512575628 L53.405216005783174,22.67265512575628 L53.405216005783174,22.67265512575628 Q53.75242658367162,24.171427412522657 53.75242658367162,25.87970550281555 L53.75242658367162,25.87970550281555 L53.75242658367162,41.463714118977926 L53.75242658367162,41.463714118977926 Q53.75242658367162,43.17199220927081 53.42943999958933,44.638532833956205 L53.42943999958933,44.638532833956205 L53.42943999958933,44.638532833956205 Q53.10645341550706,46.11313137416184 52.10519500485196,47.16871830731452 L52.10519500485196,47.16871830731452 L52.10519500485196,47.16871830731452 Q51.10393659419685,48.23236315598744 49.214465077315495,48.84476473552639 L49.214465077315495,48.84476473552639 L49.214465077315495,48.84476473552639 Q47.33306822503618,49.465224230585605 44.32121832846886,49.465224230585605 L44.32121832846886,49.465224230585605 zM44.32121832846886,18.28914908274059 L44.32121832846886,18.28914908274059 L30.650811157186048,18.28914908274059 L30.650811157186048,48.87699639760741 L44.32121832846886,48.87699639760741 L44.32121832846886,48.87699639760741 Q47.15542560379091,48.87699639760741 48.89147849323321,48.32100022671019 L48.89147849323321,48.32100022671019 L48.89147849323321,48.32100022671019 Q50.63560604727754,47.75694614029272 51.57226714111619,46.7899962778628 L51.57226714111619,46.7899962778628 L51.57226714111619,46.7899962778628 Q52.51700289955686,45.814988499912616 52.83998948363915,44.43708494594997 L52.83998948363915,44.43708494594997 L52.83998948363915,44.43708494594997 Q53.162976067721445,43.05112347646707 53.162976067721445,41.463714118977926 L53.162976067721445,41.463714118977926 L53.162976067721445,25.87970550281555 L53.162976067721445,25.87970550281555 Q53.162976067721445,24.29229614532641 52.81576548983297,22.874103013762515 L52.81576548983297,22.874103013762515 L52.81576548983297,22.874103013762515 Q52.46048024734248,21.463967797718865 51.51574448890179,20.464786273207928 L51.51574448890179,20.464786273207928 L51.51574448890179,20.464786273207928 Q50.57100873046109,19.465604748697004 48.8349558410188,18.877376915718795 L48.8349558410188,18.877376915718795 L48.8349558410188,18.877376915718795 Q47.09890295157653,18.28914908274059 44.32121832846886,18.28914908274059 zM37.01364686360711,43.63935130944528 L37.01364686360711,23.639604988186196 L44.03053040279479,23.639604988186196 L44.03053040279479,23.639604988186196 Q45.44359670815479,23.639604988186196 46.121868534727604,24.316469891887156 L46.121868534727604,24.316469891887156 L46.121868534727604,24.316469891887156 Q46.800140361300386,24.9933347955881 46.800140361300386,26.46793333579375 L46.800140361300386,26.46793333579375 L46.800140361300386,40.762675468716225 L46.800140361300386,40.762675468716225 Q46.800140361300386,42.22921609340163 46.121868534727604,42.93831265918357 L46.121868534727604,42.93831265918357 L46.121868534727604,42.93831265918357 Q45.44359670815479,43.63935130944528 44.03053040279479,43.63935130944528 L44.03053040279479,43.63935130944528 L37.01364686360711,43.63935130944528 zM38.60435579021236,43.05112347646707 L38.60435579021236,32.873976174392034 L38.60435579021236,32.873976174392034 Q38.60435579021236,32.116532115488596 38.37019051675273,31.584709691152128 L38.37019051675273,31.584709691152128 L38.37019051675273,31.584709691152128 Q38.13602524329305,31.052887266815674 37.60309737955728,30.819207716728428 L37.60309737955728,30.819207716728428 L37.60309737955728,43.05112347646707 L38.60435579021236,43.05112347646707 zM98.31650052242514,61.76160331448622 L98.31650052242514,61.76160331448622 L79.75284660229572,61.76160331448622 L79.75284660229572,61.76160331448622 Q72.025392578127,61.76160331448622 68.34334551958894,57.756819300922274 L68.34334551958894,57.756819300922274 L68.34334551958894,57.756819300922274 Q64.66129846105086,53.76009320287855 64.66129846105086,47.40239785740176 L64.66129846105086,47.40239785740176 L64.66129846105086,30.819207716728428 L64.66129846105086,30.819207716728428 Q64.66129846105086,27.57992567758818 65.60603421949153,25.227014345675336 L65.60603421949153,25.227014345675336 L65.60603421949153,25.227014345675336 Q66.55076997793222,22.874103013762515 68.37564417799719,21.286693656273375 L68.37564417799719,21.286693656273375 L75.981978233135,14.880650817675075 L75.981978233135,14.880650817675075 Q77.80685243319992,13.34964686882769 80.66528370232815,12.584144894403993 L80.66528370232815,12.584144894403993 L80.66528370232815,12.584144894403993 Q83.52371497145643,11.818642919980299 87.3511059928315,11.818642919980299 L87.3511059928315,11.818642919980299 L102.08736889158584,11.818642919980299 L102.08736889158584,11.818642919980299 Q103.50850986154792,11.818642919980299 104.15448302971244,12.463276161600248 L104.15448302971244,12.463276161600248 L104.15448302971244,12.463276161600248 Q104.80045619787703,13.115967318740456 104.80045619787703,14.526102534784105 L104.80045619787703,14.526102534784105 L104.80045619787703,21.64124193916435 L104.80045619787703,21.64124193916435 Q104.80045619787703,22.406743913588038 104.5985895828256,22.93856633792449 L104.5985895828256,22.93856633792449 L104.5985895828256,22.93856633792449 Q104.38864830317216,23.462330846740716 103.97684040846723,23.816879129631687 L103.97684040846723,23.816879129631687 L96.31398370111499,30.17457447510848 L96.31398370111499,30.17457447510848 Q96.07981842765527,30.408254025195717 95.57918922232774,30.585528166641204 L95.57918922232774,30.585528166641204 L95.57918922232774,30.585528166641204 Q95.0785600170002,30.762802308086698 94.48910950105005,30.762802308086698 L94.48910950105005,30.762802308086698 L86.82625279369782,30.762802308086698 L86.82625279369782,39.23167151986884 L86.82625279369782,39.23167151986884 Q86.8827754459122,39.1108027870651 87.02811940874925,38.965760307700606 L87.02811940874925,38.965760307700606 L87.02811940874925,38.965760307700606 Q87.1815380361883,38.82071782833612 87.29458334061712,38.69984909553237 L87.29458334061712,38.69984909553237 L94.90091739575499,32.285748341413836 L94.90091739575499,32.285748341413836 Q95.19160532142902,32.05206879132658 95.69223452675656,31.907026311962106 L95.69223452675656,31.907026311962106 L95.69223452675656,31.907026311962106 Q96.19286373208415,31.761983832597636 96.7823142480343,31.761983832597636 L96.7823142480343,31.761983832597636 L105.922834577563,31.761983832597636 L105.922834577563,31.761983832597636 Q107.335900882923,31.761983832597636 107.98187405108753,32.40661707421758 L107.98187405108753,32.40661707421758 L107.98187405108753,32.40661707421758 Q108.63592188385418,33.05125031583752 108.63592188385418,34.46944344740141 L108.63592188385418,34.46944344740141 L108.63592188385418,52.640042945563884 L108.63592188385418,52.640042945563884 Q108.63592188385418,53.40554491998757 108.42598060420075,53.93736734432404 L108.42598060420075,53.93736734432404 L108.42598060420075,53.93736734432404 Q108.22411398914932,54.46918976866049 107.81230609444438,54.81568013603122 L107.81230609444438,54.81568013603122 L100.14944938709215,61.17337548150802 L100.14944938709215,61.17337548150802 Q99.90720944903036,61.40705503159525 99.40658024370288,61.58432917304074 L99.40658024370288,61.58432917304074 L99.40658024370288,61.58432917304074 Q98.90595103837528,61.76160331448622 98.31650052242514,61.76160331448622 zM87.3511059928315,54.759274727389474 L105.922834577563,54.759274727389474 L105.922834577563,54.759274727389474 Q107.0452129572489,54.759274727389474 107.5458421625765,54.25968396513401 L107.5458421625765,54.25968396513401 L107.5458421625765,54.25968396513401 Q108.04647136790403,53.76009320287855 108.04647136790403,52.640042945563884 L108.04647136790403,52.640042945563884 L108.04647136790403,34.46944344740141 L108.04647136790403,34.46944344740141 Q108.04647136790403,33.34939319008677 107.5458421625765,32.849802427831285 L107.5458421625765,32.849802427831285 L107.5458421625765,32.849802427831285 Q107.0452129572489,32.350211665575834 105.922834577563,32.350211665575834 L105.922834577563,32.350211665575834 L96.7823142480343,32.350211665575834 L96.7823142480343,32.350211665575834 Q95.66801053295035,32.350211665575834 95.16738132762286,32.849802427831285 L95.16738132762286,32.849802427831285 L95.16738132762286,32.849802427831285 Q94.66675212229526,33.34939319008677 94.66675212229526,34.46944344740141 L94.66675212229526,34.46944344740141 L94.66675212229526,43.63935130944528 L88.9498895840388,43.63935130944528 L88.9498895840388,43.63935130944528 Q87.59334593089318,43.63935130944528 86.91507410432042,42.93831265918357 L86.91507410432042,42.93831265918357 L86.91507410432042,42.93831265918357 Q86.23680227774756,42.22921609340163 86.23680227774756,40.762675468716225 L86.23680227774756,40.762675468716225 L86.23680227774756,26.701612885880998 L86.23680227774756,26.701612885880998 Q86.23680227774756,25.227014345675336 87.11694071937185,24.493744033332646 L87.11694071937185,24.493744033332646 L87.11694071937185,24.493744033332646 Q88.0051538255981,23.760473720989943 89.83002802566304,23.760473720989943 L89.83002802566304,23.760473720989943 L102.08736889158584,23.760473720989943 L102.08736889158584,23.760473720989943 Q103.20974727127175,23.760473720989943 103.71037647659935,23.26088295873448 L103.71037647659935,23.26088295873448 L103.71037647659935,23.26088295873448 Q104.21100568192688,22.76129219647901 104.21100568192688,21.64124193916435 L104.21100568192688,21.64124193916435 L104.21100568192688,14.526102534784105 L104.21100568192688,14.526102534784105 Q104.21100568192688,13.406052277469435 103.71037647659935,12.906461515213973 L103.71037647659935,12.906461515213973 L103.71037647659935,12.906461515213973 Q103.20974727127175,12.406870752958502 102.08736889158584,12.406870752958502 L102.08736889158584,12.406870752958502 L87.3511059928315,12.406870752958502 L87.3511059928315,12.406870752958502 Q79.98701187575537,12.406870752958502 76.4180101216461,15.348009917849545 L76.4180101216461,15.348009917849545 L76.4180101216461,15.348009917849545 Q72.85708303213887,18.28914908274059 72.85708303213887,24.405106962609903 L72.85708303213887,24.405106962609903 L72.85708303213887,42.761038517738086 L72.85708303213887,42.761038517738086 Q72.85708303213887,48.87699639760741 76.4180101216461,51.81813556249843 L76.4180101216461,51.81813556249843 L76.4180101216461,51.81813556249843 Q79.98701187575537,54.759274727389474 87.3511059928315,54.759274727389474 L87.3511059928315,54.759274727389474 zM101.61903834466654,49.465224230585605 L89.88655067787742,49.465224230585605 L89.88655067787742,49.465224230585605 Q86.64861017245254,49.465224230585605 84.58149603432588,49.05427053905288 L84.58149603432588,49.05427053905288 L84.58149603432588,49.05427053905288 Q82.52245656080134,48.643316847520154 81.34355552890094,47.73277239373198 L81.34355552890094,47.73277239373198 L81.34355552890094,47.73277239373198 Q80.16465449700063,46.822227939943794 79.72054794388747,45.37986106181915 L79.72054794388747,45.37986106181915 L79.72054794388747,45.37986106181915 Q79.27644139077437,43.9374941836945 79.27644139077437,41.87466781051065 L79.27644139077437,41.87466781051065 L79.27644139077437,25.40428848712081 L79.27644139077437,25.40428848712081 Q79.27644139077437,21.230288247631623 81.16591290765572,19.465604748697004 L81.16591290765572,19.465604748697004 L81.16591290765572,19.465604748697004 Q83.05538442453711,17.700921249762374 88.70764964597713,17.700921249762374 L88.70764964597713,17.700921249762374 L98.90595103837528,17.700921249762374 L98.90595103837528,18.28914908274059 L88.70764964597713,18.28914908274059 L88.70764964597713,18.28914908274059 Q83.52371497145643,18.28914908274059 81.69884077139152,19.908790102310718 L81.69884077139152,19.908790102310718 L81.69884077139152,19.908790102310718 Q79.86589190672449,21.528431121880843 79.86589190672449,25.40428848712081 L79.86589190672449,25.40428848712081 L79.86589190672449,41.87466781051065 L79.86589190672449,41.87466781051065 Q79.86589190672449,45.70217768262913 81.90070738644292,47.28958704011826 L81.90070738644292,47.28958704011826 L81.90070738644292,47.28958704011826 Q83.93552286616135,48.87699639760741 89.88655067787742,48.87699639760741 L89.88655067787742,48.87699639760741 L101.02958782871633,48.87699639760741 L101.02958782871633,37.644262162379704 L101.61903834466654,37.644262162379704 L101.61903834466654,49.465224230585605 z" fill="#6c6c6c" id="svg_3"/></g></g></g></svg>